<?xml version="1.0" encoding="UTF-8" standalone="no" ?>
<!DOCTYPE svg PUBLIC "-//W3C//DTD SVG 1.1//EN" "http://www.w3.org/Graphics/SVG/1.1/DTD/svg11.dtd">
<svg xmlns="http://www.w3.org/2000/svg" xmlns:xlink="http://www.w3.org/1999/xlink" version="1.1" width="350" height="350" viewBox="0 0 350 350" xml:space="preserve">
<desc>Created with Fabric.js 1.7.22</desc>
<defs>
</defs>
<g id="icon" style="stroke: none; stroke-width: 1; stroke-dasharray: none; stroke-linecap: butt; stroke-linejoin: miter; stroke-miterlimit: 10; fill: none; fill-rule: nonzero; opacity: 1;" transform="translate(43.55555555555557 43.55555555555557) scale(2.89 2.89)" >
	<path d="M 81.49 83.987 H 8.509 C 3.817 83.987 0 80.17 0 75.479 V 31.051 c 0 -4.692 3.817 -8.509 8.509 -8.509 H 81.49 c 4.692 0 8.51 3.817 8.51 8.509 v 44.428 C 90 80.17 86.183 83.987 81.49 83.987 z M 8.509 25.542 C 5.472 25.542 3 28.013 3 31.051 v 44.428 c 0 3.037 2.472 5.509 5.509 5.509 H 81.49 c 3.038 0 5.51 -2.472 5.51 -5.509 V 31.051 c 0 -3.038 -2.472 -5.509 -5.51 -5.509 H 8.509 z" style="stroke: none; stroke-width: 1; stroke-dasharray: none; stroke-linecap: butt; stroke-linejoin: miter; stroke-miterlimit: 10; fill: rgb(255,255,255); fill-rule: nonzero; opacity: 1;" transform=" matrix(1 0 0 1 0 0) " stroke-linecap="round" />
	<path d="M 51.581 71.83 H 38.419 c -0.829 0 -1.5 -0.672 -1.5 -1.5 v -8.984 h -8.985 c -0.829 0 -1.5 -0.672 -1.5 -1.5 V 46.684 c 0 -0.829 0.671 -1.5 1.5 -1.5 h 8.985 v -8.984 c 0 -0.829 0.671 -1.5 1.5 -1.5 h 13.162 c 0.828 0 1.5 0.671 1.5 1.5 v 8.984 h 8.984 c 0.828 0 1.5 0.671 1.5 1.5 v 13.162 c 0 0.828 -0.672 1.5 -1.5 1.5 h -8.984 v 8.984 C 53.081 71.158 52.409 71.83 51.581 71.83 z M 39.919 68.83 h 10.162 v -8.984 c 0 -0.828 0.672 -1.5 1.5 -1.5 h 8.984 V 48.184 h -8.984 c -0.828 0 -1.5 -0.672 -1.5 -1.5 v -8.984 H 39.919 v 8.984 c 0 0.828 -0.671 1.5 -1.5 1.5 h -8.985 v 10.162 h 8.985 c 0.829 0 1.5 0.672 1.5 1.5 V 68.83 z" style="stroke: none; stroke-width: 1; stroke-dasharray: none; stroke-linecap: butt; stroke-linejoin: miter; stroke-miterlimit: 10; fill: rgb(255,255,255); fill-rule: nonzero; opacity: 1;" transform=" matrix(1 0 0 1 0 0) " stroke-linecap="round" />
	<path d="M 59.843 25.417 H 30.157 c -0.829 0 -1.5 -0.671 -1.5 -1.5 v -7.896 c 0 -5.52 4.49 -10.01 10.01 -10.01 h 12.666 c 5.52 0 10.01 4.49 10.01 10.01 v 7.896 C 61.343 24.746 60.671 25.417 59.843 25.417 z M 31.657 22.417 h 26.686 v -6.396 c 0 -3.865 -3.145 -7.01 -7.01 -7.01 H 38.667 c -3.865 0 -7.01 3.145 -7.01 7.01 V 22.417 z" style="stroke: none; stroke-width: 1; stroke-dasharray: none; stroke-linecap: butt; stroke-linejoin: miter; stroke-miterlimit: 10; fill: rgb(255,255,255); fill-rule: nonzero; opacity: 1;" transform=" matrix(1 0 0 1 0 0) " stroke-linecap="round" />
	<path d="M 11.078 74.998 c -0.829 0 -1.5 -0.672 -1.5 -1.5 V 33.1 c 0 -0.829 0.671 -1.5 1.5 -1.5 s 1.5 0.671 1.5 1.5 v 40.398 C 12.578 74.326 11.906 74.998 11.078 74.998 z" style="stroke: none; stroke-width: 1; stroke-dasharray: none; stroke-linecap: butt; stroke-linejoin: miter; stroke-miterlimit: 10; fill: rgb(255,255,255); fill-rule: nonzero; opacity: 1;" transform=" matrix(1 0 0 1 0 0) " stroke-linecap="round" />
	<path d="M 77.856 74.998 c -0.828 0 -1.5 -0.672 -1.5 -1.5 V 33.1 c 0 -0.829 0.672 -1.5 1.5 -1.5 s 1.5 0.671 1.5 1.5 v 40.398 C 79.356 74.326 78.685 74.998 77.856 74.998 z" style="stroke: none; stroke-width: 1; stroke-dasharray: none; stroke-linecap: butt; stroke-linejoin: miter; stroke-miterlimit: 10; fill: rgb(255,255,255); fill-rule: nonzero; opacity: 1;" transform=" matrix(1 0 0 1 0 0) " stroke-linecap="round" />
	<path d="M 53.059 25.417 H 36.942 c -0.829 0 -1.5 -0.671 -1.5 -1.5 v -7.101 c 0 -2.244 1.826 -4.069 4.069 -4.069 h 10.977 c 2.244 0 4.07 1.826 4.07 4.069 v 7.101 C 54.559 24.746 53.887 25.417 53.059 25.417 z M 38.442 22.417 h 13.117 v -5.601 c 0 -0.59 -0.48 -1.069 -1.07 -1.069 H 39.511 c -0.59 0 -1.069 0.479 -1.069 1.069 V 22.417 z" style="stroke: none; stroke-width: 1; stroke-dasharray: none; stroke-linecap: butt; stroke-linejoin: miter; stroke-miterlimit: 10; fill: rgb(255,255,255); fill-rule: nonzero; opacity: 1;" transform=" matrix(1 0 0 1 0 0) " stroke-linecap="round" />
</g>
</svg>