<?xml version="1.0" encoding="UTF-8" standalone="no" ?>
<!DOCTYPE svg PUBLIC "-//W3C//DTD SVG 1.1//EN" "http://www.w3.org/Graphics/SVG/1.1/DTD/svg11.dtd">
<svg xmlns="http://www.w3.org/2000/svg" xmlns:xlink="http://www.w3.org/1999/xlink" version="1.1" width="350" height="350" viewBox="0 0 350 350" xml:space="preserve">
<desc>Created with Fabric.js 1.7.22</desc>
<defs>
</defs>
<g id="icon" style="stroke: none; stroke-width: 1; stroke-dasharray: none; stroke-linecap: butt; stroke-linejoin: miter; stroke-miterlimit: 10; fill: none; fill-rule: nonzero; opacity: 1;" transform="translate(39.00555555555559 39.00555555555559) scale(2.99 2.99)" >
	<path d="M 45 89.999 c -0.776 0 -1.551 -0.123 -2.29 -0.368 c -19.604 -6.512 -32.272 -22.013 -32.272 -39.492 V 17.612 c 0 -2.276 1.619 -4.223 3.85 -4.628 h 0 c 10.74 -1.954 20.111 -5.993 27.853 -12.005 c 1.684 -1.307 4.035 -1.307 5.719 0 c 7.742 6.013 17.113 10.052 27.853 12.005 c 2.23 0.405 3.85 2.352 3.85 4.628 v 32.527 c 0 17.479 -12.667 32.981 -32.271 39.492 C 46.552 89.876 45.776 89.999 45 89.999 z M 45 1.999 c -0.576 0 -1.152 0.187 -1.633 0.56 C 35.369 8.77 25.706 12.939 14.646 14.952 c 0 0 0 0 0 0 c -1.279 0.232 -2.208 1.351 -2.208 2.66 v 32.527 c 0 16.603 12.13 31.359 30.903 37.594 c 1.069 0.355 2.248 0.355 3.318 0 c 18.772 -6.234 30.902 -20.991 30.902 -37.594 V 17.612 c 0 -1.309 -0.929 -2.428 -2.207 -2.66 C 64.295 12.939 54.632 8.77 46.633 2.559 C 46.152 2.185 45.576 1.999 45 1.999 z M 14.467 13.968 h 0.01 H 14.467 z" style="stroke: none; stroke-width: 1; stroke-dasharray: none; stroke-linecap: butt; stroke-linejoin: miter; stroke-miterlimit: 10; fill: rgb(255,255,255); fill-rule: nonzero; opacity: 1;" transform=" matrix(1 0 0 1 0 0) " stroke-linecap="round" />
	<path d="M 46.589 81.146 c -0.419 0 -0.81 -0.266 -0.949 -0.685 c -0.174 -0.524 0.109 -1.09 0.633 -1.265 c 2.043 -0.679 4.032 -1.506 5.913 -2.457 c 11.782 -5.963 18.817 -16.283 18.817 -27.605 c 0 -0.553 0.447 -1 1 -1 s 1 0.447 1 1 c 0 12.093 -7.444 23.079 -19.915 29.391 c -1.968 0.995 -4.049 1.86 -6.185 2.57 C 46.8 81.13 46.693 81.146 46.589 81.146 z" style="stroke: none; stroke-width: 1; stroke-dasharray: none; stroke-linecap: butt; stroke-linejoin: miter; stroke-miterlimit: 10; fill: rgb(255,255,255); fill-rule: nonzero; opacity: 1;" transform=" matrix(1 0 0 1 0 0) " stroke-linecap="round" />
	<path d="M 17.996 33.184 c -0.552 0 -1 -0.448 -1 -1 v -9.221 c 0 -1.925 1.37 -3.572 3.258 -3.916 c 5.376 -0.978 10.345 -2.608 14.77 -4.845 c 0.493 -0.249 1.094 -0.051 1.344 0.441 c 0.249 0.493 0.051 1.094 -0.441 1.344 c -4.597 2.324 -9.749 4.016 -15.314 5.028 c -0.937 0.17 -1.616 0.99 -1.616 1.948 v 9.221 C 18.996 32.736 18.548 33.184 17.996 33.184 z" style="stroke: none; stroke-width: 1; stroke-dasharray: none; stroke-linecap: butt; stroke-linejoin: miter; stroke-miterlimit: 10; fill: rgb(255,255,255); fill-rule: nonzero; opacity: 1;" transform=" matrix(1 0 0 1 0 0) " stroke-linecap="round" />
	<path d="M 72.004 41.902 c -0.553 0 -1 -0.448 -1 -1 V 26.468 c 0 -0.552 0.447 -1 1 -1 s 1 0.448 1 1 v 14.435 C 73.004 41.455 72.557 41.902 72.004 41.902 z" style="stroke: none; stroke-width: 1; stroke-dasharray: none; stroke-linecap: butt; stroke-linejoin: miter; stroke-miterlimit: 10; fill: rgb(255,255,255); fill-rule: nonzero; opacity: 1;" transform=" matrix(1 0 0 1 0 0) " stroke-linecap="round" />
	<path d="M 17.996 45.591 c -0.552 0 -1 -0.448 -1 -1 v -5.66 c 0 -0.552 0.448 -1 1 -1 s 1 0.448 1 1 v 5.66 C 18.996 45.143 18.548 45.591 17.996 45.591 z" style="stroke: none; stroke-width: 1; stroke-dasharray: none; stroke-linecap: butt; stroke-linejoin: miter; stroke-miterlimit: 10; fill: rgb(255,255,255); fill-rule: nonzero; opacity: 1;" transform=" matrix(1 0 0 1 0 0) " stroke-linecap="round" />
</g>
</svg>